P3
8 8
255
255 0 0  255 128 0  255 255 0  128 255 0  0 255 0  0 255 128  0 255 255  0 128 255
255 0 255  255 0 128  255 128 128  255 200 200  200 255 200  128 255 200  128 128 255  200 128 255
255 255 255  220 220 220  180 180 180  140 140 140  100 100 100  80 80 80  60 60 60  30 30 30
0 0 0  40 0 40  80 0 80  120 0 120  160 0 160  200 0 200  240 0 240  255 0 255
255 128 64  220 128 96  200 160 120  160 180 120  120 200 160  96 220 200  64 200 220  32 160 255
255 255 128  255 220 128  255 180 128  255 140 128  220 100 128  180 60 128  140 40 128  100 20 128
80 60 40  80 90 60  80 120 80  80 150 100  60 180 120  40 210 140  20 240 160  0 255 180
255 245 240  240 230 220  220 210 200  200 190 180  180 170 160  160 150 140  140 130 120  120 110 100
