P3
8 8
255
255 255 255  200 200 200  160 160 160  120 120 120  80 80 80  60 60 60  40 40 40  20 20 20
255 240 200  220 200 160  200 160 120  180 140 80  160 120 60  140 100 40  120 80 20  100 60 0
255 128 128  255 160 160  255 190 190  255 210 210  255 220 220  255 230 230  255 240 240  255 250 250
0 255 255  0 220 220  0 200 200  0 180 180  0 160 160  0 140 140  0 120 120  0 100 100
255 0 0  220 40 40  200 80 80  180 120 120  160 160 160  140 180 180  120 200 200  100 220 220
50 80 120  60 100 130  70 120 140  80 140 150  90 160 160  100 180 170  110 200 180  120 220 190
20 30 40  40 50 60  60 70 80  80 90 100  100 110 120  120 130 140  140 150 160  160 170 180
255 200 150  230 180 140  210 160 130  190 140 120  170 120 110  150 100 100  130 80 90  110 60 80
